<svg id="visual" viewBox="0 0 900 600" width="900" height="600" xmlns="http://www.w3.org/2000/svg" xmlns:xlink="http://www.w3.org/1999/xlink" version="1.1"><rect x="0" y="0" width="900" height="600" fill="#001220"></rect><path d="M0 362L21.5 375C43 388 86 414 128.8 418.7C171.7 423.3 214.3 406.7 257.2 401.2C300 395.7 343 401.3 385.8 409.7C428.7 418 471.3 429 514.2 433.5C557 438 600 436 642.8 436C685.7 436 728.3 438 771.2 429.2C814 420.3 857 400.7 878.5 390.8L900 381L900 601L878.5 601C857 601 814 601 771.2 601C728.3 601 685.7 601 642.8 601C600 601 557 601 514.2 601C471.3 601 428.7 601 385.8 601C343 601 300 601 257.2 601C214.3 601 171.7 601 128.8 601C86 601 43 601 21.5 601L0 601Z" fill="#fa7369"></path><path d="M0 458L21.5 455.8C43 453.7 86 449.3 128.8 452C171.7 454.7 214.3 464.3 257.2 468.5C300 472.7 343 471.3 385.8 462.5C428.7 453.7 471.3 437.3 514.2 427.3C557 417.3 600 413.7 642.8 413C685.7 412.3 728.3 414.7 771.2 426.2C814 437.7 857 458.3 878.5 468.7L900 479L900 601L878.5 601C857 601 814 601 771.2 601C728.3 601 685.7 601 642.8 601C600 601 557 601 514.2 601C471.3 601 428.7 601 385.8 601C343 601 300 601 257.2 601C214.3 601 171.7 601 128.8 601C86 601 43 601 21.5 601L0 601Z" fill="#ee6157"></path><path d="M0 511L21.5 508.3C43 505.7 86 500.3 128.8 494.2C171.7 488 214.3 481 257.2 482.5C300 484 343 494 385.8 491C428.7 488 471.3 472 514.2 470.5C557 469 600 482 642.8 481C685.7 480 728.3 465 771.2 465.3C814 465.7 857 481.3 878.5 489.2L900 497L900 601L878.5 601C857 601 814 601 771.2 601C728.3 601 685.7 601 642.8 601C600 601 557 601 514.2 601C471.3 601 428.7 601 385.8 601C343 601 300 601 257.2 601C214.3 601 171.7 601 128.8 601C86 601 43 601 21.5 601L0 601Z" fill="#e14f46"></path><path d="M0 483L21.5 490C43 497 86 511 128.8 515C171.7 519 214.3 513 257.2 506.5C300 500 343 493 385.8 495.8C428.7 498.7 471.3 511.3 514.2 511.2C557 511 600 498 642.8 492.3C685.7 486.7 728.3 488.3 771.2 496.7C814 505 857 520 878.5 527.5L900 535L900 601L878.5 601C857 601 814 601 771.2 601C728.3 601 685.7 601 642.8 601C600 601 557 601 514.2 601C471.3 601 428.7 601 385.8 601C343 601 300 601 257.2 601C214.3 601 171.7 601 128.8 601C86 601 43 601 21.5 601L0 601Z" fill="#d43b35"></path><path d="M0 525L21.5 527C43 529 86 533 128.8 539.3C171.7 545.7 214.3 554.3 257.2 553.5C300 552.7 343 542.3 385.8 537.5C428.7 532.7 471.3 533.3 514.2 534.2C557 535 600 536 642.8 540.3C685.7 544.7 728.3 552.3 771.2 557.8C814 563.3 857 566.7 878.5 568.3L900 570L900 601L878.5 601C857 601 814 601 771.2 601C728.3 601 685.7 601 642.8 601C600 601 557 601 514.2 601C471.3 601 428.7 601 385.8 601C343 601 300 601 257.2 601C214.3 601 171.7 601 128.8 601C86 601 43 601 21.5 601L0 601Z" fill="#c72424"></path></svg>